<svg width="48" height="31" viewBox="0 0 48 31" fill="none" xmlns="http://www.w3.org/2000/svg">
<rect x="7.07566" y="8.06687" width="1.76535" height="1.15131" fill="#1876FB" stroke="black" stroke-width="1.15131"/>
<rect x="7.07566" y="10.3696" width="1.76535" height="1.15132" fill="#1876FB" stroke="black" stroke-width="1.15132"/>
<rect x="7.07566" y="12.6722" width="1.76535" height="1.15132" fill="#1876FB" stroke="black" stroke-width="1.15132"/>
<rect x="7.07566" y="14.9748" width="1.76535" height="1.15132" fill="#1876FB" stroke="black" stroke-width="1.15132"/>
<rect x="7.07566" y="17.2774" width="1.76535" height="1.15131" fill="#1876FB" stroke="black" stroke-width="1.15131"/>
<rect x="7.07566" y="19.5801" width="1.76535" height="1.15132" fill="#1876FB" stroke="black" stroke-width="1.15132"/>
<rect x="4.15891" y="19.5801" width="1.76535" height="1.15132" fill="#1876FB" stroke="black" stroke-width="1.15132"/>
<rect x="4.15891" y="17.2774" width="1.76535" height="1.15131" fill="#1876FB" stroke="black" stroke-width="1.15131"/>
<rect x="4.15891" y="14.9748" width="1.76535" height="1.15132" fill="#1876FB" stroke="black" stroke-width="1.15132"/>
<rect x="4.15891" y="12.6722" width="1.76535" height="1.15132" fill="#1876FB" stroke="black" stroke-width="1.15132"/>
<rect x="4.15891" y="10.3696" width="1.76535" height="1.15132" fill="#1876FB" stroke="black" stroke-width="1.15132"/>
<rect x="4.15891" y="8.06687" width="1.76535" height="1.15131" fill="#1876FB" stroke="black" stroke-width="1.15131"/>
<rect x="4.15891" y="5.76426" width="1.76535" height="1.15132" fill="#1876FB" stroke="black" stroke-width="1.15132"/>
<rect x="9.99228" y="10.3696" width="1.76535" height="1.15132" fill="#1876FB" stroke="black" stroke-width="1.15132"/>
<rect x="9.99228" y="12.6722" width="1.76535" height="1.15132" fill="#1876FB" stroke="black" stroke-width="1.15132"/>
<rect x="9.99228" y="14.9748" width="1.76535" height="1.15132" fill="#1876FB" stroke="black" stroke-width="1.15132"/>
<rect x="9.99228" y="17.2774" width="1.76535" height="1.15131" fill="#1876FB" stroke="black" stroke-width="1.15131"/>
<rect x="9.99228" y="19.5801" width="1.76535" height="1.15132" fill="#1876FB" stroke="black" stroke-width="1.15132"/>
<rect x="12.9089" y="12.6722" width="1.76535" height="1.15132" fill="#1876FB" stroke="black" stroke-width="1.15132"/>
<rect x="12.9089" y="14.9748" width="1.76535" height="1.15132" fill="#1876FB" stroke="black" stroke-width="1.15132"/>
<rect x="12.9089" y="17.2774" width="1.76535" height="1.15131" fill="#1876FB" stroke="black" stroke-width="1.15131"/>
<rect x="12.9089" y="19.5801" width="1.76535" height="1.15132" fill="#1876FB" stroke="black" stroke-width="1.15132"/>
<rect x="15.8257" y="14.9748" width="1.76535" height="1.15132" fill="#1876FB" stroke="black" stroke-width="1.15132"/>
<rect x="15.8257" y="17.2774" width="1.76535" height="1.15131" fill="#1876FB" stroke="black" stroke-width="1.15131"/>
<rect x="15.8257" y="19.5801" width="1.76535" height="1.15132" fill="#1876FB" stroke="black" stroke-width="1.15132"/>
<rect x="18.7423" y="17.2774" width="1.76535" height="1.15131" fill="#1876FB" stroke="black" stroke-width="1.15131"/>
<rect x="21.6589" y="19.5801" width="1.76535" height="1.15132" fill="#1876FB" stroke="black" stroke-width="1.15132"/>
<rect x="24.5757" y="19.5801" width="1.76535" height="1.15132" fill="#1876FB" stroke="black" stroke-width="1.15132"/>
<rect x="27.4923" y="19.5801" width="1.76535" height="1.15132" fill="#1876FB" stroke="black" stroke-width="1.15132"/>
<rect x="30.4089" y="19.5801" width="1.76535" height="1.15132" fill="#1876FB" stroke="black" stroke-width="1.15132"/>
<rect x="33.3257" y="19.5801" width="1.76535" height="1.15132" fill="#1876FB" stroke="black" stroke-width="1.15132"/>
<rect x="36.2423" y="19.5801" width="1.76535" height="1.15132" fill="#1876FB" stroke="black" stroke-width="1.15132"/>
<rect x="7.07566" y="19.5801" width="1.76535" height="1.15132" fill="#1876FB" stroke="black" stroke-width="1.15132"/>
<rect x="4.15891" y="19.5801" width="1.76535" height="1.15132" fill="#1876FB" stroke="black" stroke-width="1.15132"/>
<rect x="7.07566" y="21.8827" width="1.76535" height="1.15132" fill="#1876FB" stroke="black" stroke-width="1.15132"/>
<rect x="9.99228" y="19.5801" width="1.76535" height="1.15132" fill="#1876FB" stroke="black" stroke-width="1.15132"/>
<rect x="9.99228" y="21.8827" width="1.76535" height="1.15132" fill="#1876FB" stroke="black" stroke-width="1.15132"/>
<rect x="12.9089" y="19.5801" width="1.76535" height="1.15132" fill="#1876FB" stroke="black" stroke-width="1.15132"/>
<rect x="12.9089" y="21.8827" width="1.76535" height="1.15132" fill="#1876FB" stroke="black" stroke-width="1.15132"/>
<rect x="15.8257" y="19.5801" width="1.76535" height="1.15132" fill="#1876FB" stroke="black" stroke-width="1.15132"/>
<rect x="15.8257" y="21.8827" width="1.76535" height="1.15132" fill="#1876FB" stroke="black" stroke-width="1.15132"/>
<rect x="18.7423" y="19.5801" width="1.76535" height="1.15132" fill="#1876FB" stroke="black" stroke-width="1.15132"/>
<rect x="18.7423" y="21.8827" width="1.76535" height="1.15132" fill="#1876FB" stroke="black" stroke-width="1.15132"/>
<rect x="21.6589" y="19.5801" width="1.76535" height="1.15132" fill="#1876FB" stroke="black" stroke-width="1.15132"/>
<rect x="21.6589" y="21.8827" width="1.76535" height="1.15132" fill="#1876FB" stroke="black" stroke-width="1.15132"/>
<rect x="24.5757" y="19.5801" width="1.76535" height="1.15132" fill="#1876FB" stroke="black" stroke-width="1.15132"/>
<rect x="24.5757" y="21.8827" width="1.76535" height="1.15132" fill="#1876FB" stroke="black" stroke-width="1.15132"/>
<rect x="27.4923" y="19.5801" width="1.76535" height="1.15132" fill="#1876FB" stroke="black" stroke-width="1.15132"/>
<rect x="27.4923" y="21.8827" width="1.76535" height="1.15132" fill="#1876FB" stroke="black" stroke-width="1.15132"/>
<rect x="30.4089" y="19.5801" width="1.76535" height="1.15132" fill="#1876FB" stroke="black" stroke-width="1.15132"/>
<rect x="30.4089" y="21.8827" width="1.76535" height="1.15132" fill="#1876FB" stroke="black" stroke-width="1.15132"/>
<rect x="33.3257" y="19.5801" width="1.76535" height="1.15132" fill="#1876FB" stroke="black" stroke-width="1.15132"/>
<rect x="33.3257" y="21.8827" width="1.76535" height="1.15132" fill="#1876FB" stroke="black" stroke-width="1.15132"/>
<rect x="36.2423" y="19.5801" width="1.76535" height="1.15132" fill="#1876FB" stroke="black" stroke-width="1.15132"/>
<rect x="36.2423" y="21.8827" width="1.76535" height="1.15132" fill="#1876FB" stroke="black" stroke-width="1.15132"/>
<rect x="39.1589" y="19.5801" width="1.76535" height="1.15132" fill="#1876FB" stroke="black" stroke-width="1.15132"/>
<rect x="39.1589" y="21.8827" width="1.76535" height="1.15132" fill="#1876FB" stroke="black" stroke-width="1.15132"/>
<rect x="39.1589" y="24.1853" width="1.76535" height="1.15131" fill="#1876FB" stroke="black" stroke-width="1.15131"/>
<rect x="42.0757" y="24.1853" width="1.76535" height="1.15131" fill="#1876FB" stroke="black" stroke-width="1.15131"/>
<rect x="42.0757" y="26.488" width="1.76535" height="1.15132" fill="#1876FB" stroke="black" stroke-width="1.15132"/>
<rect x="42.0757" y="19.5801" width="1.76535" height="1.15132" fill="#1876FB" stroke="black" stroke-width="1.15132"/>
<rect x="39.1589" y="19.5801" width="1.76535" height="1.15132" fill="#1876FB" stroke="black" stroke-width="1.15132"/>
<path d="M43.6667 20.557H42.25V19.7544H43.6667V20.557ZM42.25 22.057H43.6667V22.8597H42.25V22.057Z" fill="#1876FB" stroke="black" stroke-width="1.5"/>
<rect x="39.1589" y="17.2774" width="1.76535" height="1.15131" fill="#1876FB" stroke="black" stroke-width="1.15131"/>
<rect x="42.0757" y="17.2774" width="1.76535" height="1.15131" fill="#1876FB" stroke="black" stroke-width="1.15131"/>
<rect x="39.1589" y="14.9748" width="1.76535" height="1.15132" fill="#1876FB" stroke="black" stroke-width="1.15132"/>
<rect x="42.0757" y="14.9748" width="1.76535" height="1.15132" fill="#1876FB" stroke="black" stroke-width="1.15132"/>
<rect x="39.1589" y="12.6722" width="1.76535" height="1.15132" fill="#1876FB" stroke="black" stroke-width="1.15132"/>
<rect x="42.0757" y="12.6722" width="1.76535" height="1.15132" fill="#1876FB" stroke="black" stroke-width="1.15132"/>
<rect x="39.1589" y="10.3696" width="1.76535" height="1.15132" fill="#1876FB" stroke="black" stroke-width="1.15132"/>
<rect x="42.0757" y="10.3696" width="1.76535" height="1.15132" fill="#1876FB" stroke="black" stroke-width="1.15132"/>
<rect x="39.1589" y="8.06687" width="1.76535" height="1.15131" fill="#1876FB" stroke="black" stroke-width="1.15131"/>
<rect x="42.0757" y="8.06687" width="1.76535" height="1.15131" fill="#1876FB" stroke="black" stroke-width="1.15131"/>
<rect x="39.1589" y="5.76426" width="1.76535" height="1.15132" fill="#1876FB" stroke="black" stroke-width="1.15132"/>
<rect x="42.0757" y="5.76426" width="1.76535" height="1.15132" fill="#1876FB" stroke="black" stroke-width="1.15132"/>
<rect x="39.1589" y="3.46164" width="1.76535" height="1.15132" fill="#1876FB" stroke="black" stroke-width="1.15132"/>
<rect x="36.2423" y="5.76426" width="1.76535" height="1.15132" fill="#1876FB" stroke="black" stroke-width="1.15132"/>
<rect x="33.3257" y="8.06687" width="1.76535" height="1.15131" fill="#1876FB" stroke="black" stroke-width="1.15131"/>
<rect x="33.3257" y="10.3696" width="1.76535" height="1.15132" fill="#1876FB" stroke="black" stroke-width="1.15132"/>
<rect x="33.3257" y="12.6722" width="1.76535" height="1.15132" fill="#1876FB" stroke="black" stroke-width="1.15132"/>
<rect x="33.3257" y="14.9748" width="1.76535" height="1.15132" fill="#1876FB" stroke="black" stroke-width="1.15132"/>
<rect x="30.4089" y="10.3696" width="1.76535" height="1.15132" fill="#1876FB" stroke="black" stroke-width="1.15132"/>
<rect x="30.4089" y="12.6722" width="1.76535" height="1.15132" fill="#1876FB" stroke="black" stroke-width="1.15132"/>
<rect x="30.4089" y="14.9748" width="1.76535" height="1.15132" fill="#1876FB" stroke="black" stroke-width="1.15132"/>
<rect x="27.4923" y="12.6722" width="1.76535" height="1.15132" fill="#1876FB" stroke="black" stroke-width="1.15132"/>
<rect x="27.4923" y="14.9748" width="1.76535" height="1.15132" fill="#1876FB" stroke="black" stroke-width="1.15132"/>
<rect x="24.5757" y="14.9748" width="1.76535" height="1.15132" fill="#1876FB" stroke="black" stroke-width="1.15132"/>
<rect x="21.6589" y="17.2774" width="1.76535" height="1.15131" fill="#1876FB" stroke="black" stroke-width="1.15131"/>
<rect x="24.5757" y="17.2774" width="1.76535" height="1.15131" fill="#1876FB" stroke="black" stroke-width="1.15131"/>
<rect x="27.4923" y="17.2774" width="1.76535" height="1.15131" fill="#1876FB" stroke="black" stroke-width="1.15131"/>
<rect x="30.4089" y="17.2774" width="1.76535" height="1.15131" fill="#1876FB" stroke="black" stroke-width="1.15131"/>
<rect x="33.3257" y="17.2774" width="1.76535" height="1.15131" fill="#1876FB" stroke="black" stroke-width="1.15131"/>
<rect x="36.2423" y="17.2774" width="1.76535" height="1.15131" fill="#1876FB" stroke="black" stroke-width="1.15131"/>
<rect x="36.2423" y="14.9748" width="1.76535" height="1.15132" fill="#1876FB" stroke="black" stroke-width="1.15132"/>
<rect x="36.2423" y="12.6722" width="1.76535" height="1.15132" fill="#1876FB" stroke="black" stroke-width="1.15132"/>
<rect x="36.2423" y="10.3696" width="1.76535" height="1.15132" fill="#1876FB" stroke="black" stroke-width="1.15132"/>
<rect x="36.2423" y="8.06687" width="1.76535" height="1.15131" fill="#1876FB" stroke="black" stroke-width="1.15131"/>
<rect x="18.7423" y="19.5801" width="1.76535" height="1.15132" fill="#1876FB" stroke="black" stroke-width="1.15132"/>
<rect x="7.07566" y="3.46164" width="1.76535" height="1.15132" fill="#1876FB" stroke="black" stroke-width="1.15132"/>
<rect x="9.99228" y="3.46164" width="1.76535" height="1.15132" fill="#1876FB" stroke="black" stroke-width="1.15132"/>
<rect x="9.99228" y="5.76426" width="1.76535" height="1.15132" fill="#1876FB" stroke="black" stroke-width="1.15132"/>
<rect x="12.9089" y="3.46164" width="1.76535" height="1.15132" fill="#1876FB" stroke="black" stroke-width="1.15132"/>
<rect x="12.9089" y="5.76426" width="1.76535" height="1.15132" fill="#1876FB" stroke="black" stroke-width="1.15132"/>
<rect x="12.9089" y="8.06687" width="1.76535" height="1.15131" fill="#1876FB" stroke="black" stroke-width="1.15131"/>
<rect x="15.8257" y="3.46164" width="1.76535" height="1.15132" fill="#1876FB" stroke="black" stroke-width="1.15132"/>
<rect x="15.8257" y="5.76426" width="1.76535" height="1.15132" fill="#1876FB" stroke="black" stroke-width="1.15132"/>
<rect x="15.8257" y="8.06687" width="1.76535" height="1.15131" fill="#1876FB" stroke="black" stroke-width="1.15131"/>
<rect x="15.8257" y="10.3696" width="1.76535" height="1.15132" fill="#1876FB" stroke="black" stroke-width="1.15132"/>
<rect x="18.7423" y="3.46164" width="1.76535" height="1.15132" fill="#1876FB" stroke="black" stroke-width="1.15132"/>
<rect x="18.7423" y="5.76426" width="1.76535" height="1.15132" fill="#1876FB" stroke="black" stroke-width="1.15132"/>
<rect x="18.7423" y="8.06687" width="1.76535" height="1.15131" fill="#1876FB" stroke="black" stroke-width="1.15131"/>
<rect x="18.7423" y="10.3696" width="1.76535" height="1.15132" fill="#1876FB" stroke="black" stroke-width="1.15132"/>
<rect x="18.7423" y="12.6722" width="1.76535" height="1.15132" fill="#1876FB" stroke="black" stroke-width="1.15132"/>
<rect x="21.6589" y="3.46164" width="1.76535" height="1.15132" fill="#1876FB" stroke="black" stroke-width="1.15132"/>
<rect x="21.6589" y="5.76426" width="1.76535" height="1.15132" fill="#1876FB" stroke="black" stroke-width="1.15132"/>
<rect x="21.6589" y="8.06687" width="1.76535" height="1.15131" fill="#1876FB" stroke="black" stroke-width="1.15131"/>
<rect x="21.6589" y="10.3696" width="1.76535" height="1.15132" fill="#1876FB" stroke="black" stroke-width="1.15132"/>
<rect x="24.5757" y="12.6722" width="1.76535" height="1.15132" fill="#1876FB" stroke="black" stroke-width="1.15132"/>
<rect x="27.4923" y="10.3696" width="1.76535" height="1.15132" fill="#1876FB" stroke="black" stroke-width="1.15132"/>
<rect x="30.4089" y="8.06687" width="1.76535" height="1.15131" fill="#1876FB" stroke="black" stroke-width="1.15131"/>
<rect x="33.3257" y="5.76426" width="1.76535" height="1.15132" fill="#1876FB" stroke="black" stroke-width="1.15132"/>
<rect x="36.2423" y="3.46164" width="1.76535" height="1.15132" fill="#1876FB" stroke="black" stroke-width="1.15132"/>
<rect x="21.6589" y="12.6722" width="1.76535" height="1.15132" fill="#1876FB" stroke="black" stroke-width="1.15132"/>
<rect x="24.5757" y="3.46164" width="1.76535" height="1.15132" fill="#1876FB" stroke="black" stroke-width="1.15132"/>
<rect x="24.5757" y="5.76426" width="1.76535" height="1.15132" fill="#1876FB" stroke="black" stroke-width="1.15132"/>
<rect x="24.5757" y="8.06687" width="1.76535" height="1.15131" fill="#1876FB" stroke="black" stroke-width="1.15131"/>
<rect x="24.5757" y="10.3696" width="1.76535" height="1.15132" fill="#1876FB" stroke="black" stroke-width="1.15132"/>
<rect x="27.4923" y="3.46164" width="1.76535" height="1.15132" fill="#1876FB" stroke="black" stroke-width="1.15132"/>
<rect x="27.4923" y="5.76426" width="1.76535" height="1.15132" fill="#1876FB" stroke="black" stroke-width="1.15132"/>
<rect x="27.4923" y="8.06687" width="1.76535" height="1.15131" fill="#1876FB" stroke="black" stroke-width="1.15131"/>
<rect x="30.4089" y="3.46164" width="1.76535" height="1.15132" fill="#1876FB" stroke="black" stroke-width="1.15132"/>
<rect x="30.4089" y="5.76426" width="1.76535" height="1.15132" fill="#1876FB" stroke="black" stroke-width="1.15132"/>
<rect x="33.3257" y="3.46164" width="1.76535" height="1.15132" fill="#1876FB" stroke="black" stroke-width="1.15132"/>
<rect x="7.07566" y="5.76426" width="1.76535" height="1.15132" fill="#1876FB" stroke="black" stroke-width="1.15132"/>
<rect x="9.99228" y="8.06687" width="1.76535" height="1.15131" fill="#1876FB" stroke="black" stroke-width="1.15131"/>
<rect x="12.9089" y="10.3696" width="1.76535" height="1.15132" fill="#1876FB" stroke="black" stroke-width="1.15132"/>
<rect x="15.8257" y="12.6722" width="1.76535" height="1.15132" fill="#1876FB" stroke="black" stroke-width="1.15132"/>
<rect x="18.7423" y="14.9748" width="1.76535" height="1.15132" fill="#1876FB" stroke="black" stroke-width="1.15132"/>
<rect x="21.6589" y="14.9748" width="1.76535" height="1.15132" fill="#1876FB" stroke="black" stroke-width="1.15132"/>
<rect x="24.5757" y="14.9748" width="1.76535" height="1.15132" fill="#1876FB" stroke="black" stroke-width="1.15132"/>
<rect x="12.9089" y="24.1853" width="1.76535" height="1.15131" fill="#1876FB" stroke="black" stroke-width="1.15131"/>
<path d="M5.74992 22.8597V22.0571H4.33326V22.8597H5.74992ZM7.24992 24.3597V25.1623H37.8333V24.3597H7.24992ZM7.24992 1.33337V2.13601H40.7499V1.33337H7.24992ZM43.6666 3.63601H42.2499V4.43864H43.6666V3.63601ZM43.6666 29.7676V28.965H42.2499V29.7676H43.6666ZM39.3333 27.465H40.7499V26.6623H39.3333V27.465ZM45.1666 27.465H46.5833V5.93864H45.1666V27.465ZM4.33326 4.43864H5.74992V3.63601H4.33326V4.43864ZM2.83326 5.93864H1.41659V20.5571H2.83326V5.93864Z" fill="#1876FB" stroke="black" stroke-width="1.5"/>
<path d="M41.4998 25.1623H42.2498V25.9123V27.4649H43.6665V5.93862H41.4998H40.7498V5.18862V3.63599H7.24984V5.18862V5.93862H6.49984H4.33317V20.557H6.49984H7.24984V21.307V22.8597H38.5832H39.3332V23.6097V25.1623H41.4998Z" fill="#1876FB" stroke="black" stroke-width="1.5"/>
</svg>
