<svg width="198" height="47" viewBox="0 0 198 47" fill="none" xmlns="http://www.w3.org/2000/svg">
<path d="M0.585938 4.68359L0 2.04688L22.3828 0.757812C23.3594 0.796875 24.1797 1.14844 24.8438 1.8125C25.5078 2.47656 25.8398 3.19922 25.8398 3.98047C25.8398 4.48828 25.6445 4.9375 25.2539 5.32812C24.8633 5.71875 24.2773 5.95312 23.4961 6.03125L13.6523 5.50391C14.6289 19.293 15.3516 31.832 15.8203 43.1211C15.4688 44.293 14.8047 44.8789 13.8281 44.8789C13.125 44.8789 12.4414 44.5859 11.7773 44C11.1133 43.4531 10.7031 42.7695 10.5469 41.9492C10.625 39.8398 10.6641 36.6367 10.6641 32.3398C10.6641 30.7383 10.6445 28.3359 10.6055 25.1328C10.6055 21.9297 10.6055 19.5273 10.6055 17.9258C10.6055 13.2773 10.6836 9.07812 10.8398 5.32812C6.42578 5.01562 3.00781 4.80078 0.585938 4.68359ZM42.4805 21.6758L39.9023 21.5C39.082 19.3125 37.6953 18.2188 35.7422 18.2188C34.8828 18.2188 33.9648 18.4141 32.9883 18.8047C32.0508 19.1953 31.2695 19.6055 30.6445 20.0352C30.0195 20.4258 29.1992 21.0117 28.1836 21.793C28.1836 22.3398 28.1641 24.1172 28.125 27.125C28.125 30.1328 28.1445 33.4727 28.1836 37.1445C28.2617 40.8164 28.3398 42.7891 28.418 43.0625C28.0664 44.2344 27.3828 44.8203 26.3672 44.8203C25.6641 44.8203 24.9805 44.5469 24.3164 44C23.6914 43.4141 23.3008 42.7109 23.1445 41.8906C23.8867 29.3516 24.5508 19.8789 25.1367 13.4727L27.7734 14.0586L27.9492 17.9844C30.6836 15.7188 33.0273 14.5859 34.9805 14.5859C37.1289 14.5859 38.9258 15.0742 40.3711 16.0508C41.8555 17.0273 42.5977 18.4531 42.5977 20.3281C42.5977 20.9141 42.5586 21.3633 42.4805 21.6758ZM47.0508 18.6875L45.8789 15.6992C46.8945 14.6836 48.1836 13.8828 49.7461 13.2969C51.3086 12.6719 52.8516 12.3594 54.375 12.3594C60.9766 12.3594 64.2773 18.0625 64.2773 29.4688C64.2773 31.0312 64.1797 33.3359 63.9844 36.3828C63.8281 39.4297 63.75 41.7148 63.75 43.2383C63.4375 44.4492 62.832 45.0547 61.9336 45.0547C61.2305 45.0547 60.5859 44.7031 60 44C59.4141 43.2969 59.1211 42.5156 59.1211 41.6562C59.1211 41.3828 59.1406 41.1875 59.1797 41.0703C56.7578 43.4141 54.1797 44.5859 51.4453 44.5859C49.375 44.5859 47.5586 43.8438 45.9961 42.3594C44.4727 40.8359 43.7109 39 43.7109 36.8516C43.7109 33.2188 45.1172 29.9375 47.9297 27.0078C50.7812 24.0781 54.0039 22.6133 57.5977 22.6133C57.7539 22.6133 57.9102 22.6328 58.0664 22.6719C58.2227 22.6719 58.3984 22.6914 58.5938 22.7305C58.8281 22.7695 59.0039 22.7891 59.1211 22.7891C58.8086 18.2188 56.9922 15.9336 53.6719 15.9336C51.7188 15.9336 49.5117 16.8516 47.0508 18.6875ZM59.2969 37.0273C59.375 34.293 59.4141 32.2227 59.4141 30.8164C59.4141 29.6445 59.375 28.0039 59.2969 25.8945H58.8281C56.0547 25.9336 53.5156 26.9688 51.2109 29C48.9453 31.0312 47.8125 33.4922 47.8125 36.3828C47.8125 37.6328 48.1836 38.6289 48.9258 39.3711C49.707 40.1133 50.6445 40.4844 51.7383 40.4844C53.457 40.4844 55.9766 39.332 59.2969 37.0273ZM85.0195 20.7969C85.1758 22.9844 85.293 25.582 85.3711 28.5898C85.4492 31.5586 85.5078 34.5664 85.5469 37.6133C85.625 40.6602 85.6836 42.7305 85.7227 43.8242C84.8633 44.0586 84.0625 44.1758 83.3203 44.1758C82.7344 44.1758 82.1875 44.0781 81.6797 43.8828C81.5625 42.3594 81.4844 40.6211 81.4453 38.668C81.4062 36.7148 81.3867 34.9961 81.3867 33.5117C81.3867 31.9883 81.3477 30.4062 81.2695 28.7656C81.2305 27.125 81.1328 25.7188 80.9766 24.5469C80.8203 23.375 80.5859 22.3008 80.2734 21.3242C79.9609 20.3086 79.5117 19.5273 78.9258 18.9805C78.3789 18.4336 77.6953 18.1406 76.875 18.1016C76.0547 18.1016 75.3906 18.2773 74.8828 18.6289C74.375 18.9805 73.8281 19.625 73.2422 20.5625V43.7656C72.6562 44.0781 71.9531 44.2344 71.1328 44.2344C70.5078 44.2344 69.8047 44.1367 69.0234 43.9414C69.1406 41.4805 69.2188 36.6367 69.2578 29.4102C69.2969 22.1836 69.4531 16.832 69.7266 13.3555L72.3633 13.9414L72.5391 16.9297C73.7109 15.0938 75.1953 14.1758 76.9922 14.1758C79.6484 14.1758 81.8945 15.3477 83.7305 17.6914C84.8633 15.3477 86.6992 14.1758 89.2383 14.1758C90.2539 14.1758 91.1328 14.293 91.875 14.5273C96.1328 15.7383 98.2617 21.1875 98.2617 30.875C98.2617 32.2812 98.2031 34.1758 98.0859 36.5586C98.0078 38.9023 97.9688 40.4844 97.9688 41.3047C97.9688 42.3984 98.0273 43.2969 98.1445 44C96.1133 44.5469 94.8828 44.8203 94.4531 44.8203C94.0625 44.8203 93.7891 44.7812 93.6328 44.7031C93.4766 44.1953 93.3984 43.2578 93.3984 41.8906C93.3984 41.0312 93.457 39.2734 93.5742 36.6172C93.6914 33.9219 93.75 31.8125 93.75 30.2891C93.75 22.1641 92.1484 18.0625 88.9453 17.9844C88.2031 18.0234 87.5586 18.2578 87.0117 18.6875C86.4648 19.0781 85.8008 19.7812 85.0195 20.7969ZM103.945 1.92969L106.582 1.22656C106.582 2.47656 106.602 3.17969 106.641 3.33594C108.867 1.85156 111.992 1.10938 116.016 1.10938C120.352 1.10938 123.594 2.47656 125.742 5.21094C127.891 7.90625 128.965 11.6953 128.965 16.5781C128.965 20.9141 127.91 24.5078 125.801 27.3594C123.691 30.2109 120.508 31.6367 116.25 31.6367C115.547 31.6367 112.734 31.4023 107.812 30.9336C107.891 33.7852 108.047 38.2188 108.281 44.2344C107.93 45.4453 107.246 46.0508 106.23 46.0508C105.527 46.0508 104.844 45.7578 104.18 45.1719C103.555 44.625 103.164 43.9414 103.008 43.1211C103.125 39.8398 103.242 33.4531 103.359 23.9609C103.516 14.4688 103.711 7.125 103.945 1.92969ZM107.168 7.26172L107.637 25.543C109.785 26.7148 112.266 27.3008 115.078 27.3008C117.773 27.3008 120.059 26.2852 121.934 24.2539C123.809 22.2227 124.746 19.7422 124.746 16.8125C124.746 13.6484 123.77 10.7969 121.816 8.25781C119.863 5.71875 117.422 4.44922 114.492 4.44922C112.109 4.44922 109.668 5.38672 107.168 7.26172ZM130.254 31.5195C130.254 29.957 130.41 28.2188 130.723 26.3047C131.074 24.3906 131.582 22.3789 132.246 20.2695C132.91 18.1602 133.906 16.4023 135.234 14.9961C136.562 13.5898 138.105 12.8867 139.863 12.8867C143.613 12.8867 146.621 14.5859 148.887 17.9844C151.152 21.3438 152.285 25.0938 152.285 29.2344C152.285 30.9922 152.09 32.75 151.699 34.5078C151.348 36.2266 150.781 37.9258 150 39.6055C149.219 41.2852 148.086 42.6914 146.602 43.8242C145.156 44.918 143.457 45.543 141.504 45.6992C137.91 45.2305 135.137 43.707 133.184 41.1289C131.23 38.5117 130.254 35.3086 130.254 31.5195ZM140.215 15.9336C138.848 16.0898 137.695 17.3398 136.758 19.6836C135.82 22.0273 135.215 24.3125 134.941 26.5391C134.668 28.7266 134.531 30.6602 134.531 32.3398C134.531 34.5273 135.195 36.5586 136.523 38.4336C137.891 40.2695 139.414 41.1875 141.094 41.1875C142.305 41.1875 143.398 40.7188 144.375 39.7812C145.352 38.8438 146.113 37.6914 146.66 36.3242C147.246 34.918 147.676 33.5117 147.949 32.1055C148.262 30.6992 148.418 29.4492 148.418 28.3555C148.418 25.1523 147.695 22.3594 146.25 19.9766C144.805 17.5938 142.793 16.2461 140.215 15.9336ZM158.32 3.80469L161.016 4.39062L162.305 42.3008C161.953 43.5117 161.27 44.1172 160.254 44.1172C159.551 44.1172 158.867 43.8438 158.203 43.2969C157.578 42.7109 157.188 42.0078 157.031 41.1875L158.32 3.80469ZM168.398 13.8828L171.094 14.4688C171.406 17.6719 171.68 22.7109 171.914 29.5859C172.148 36.4219 172.305 40.6602 172.383 42.3008C172.031 43.5117 171.348 44.1172 170.332 44.1172C169.629 44.1172 168.945 43.8438 168.281 43.2969C167.656 42.7109 167.266 42.0078 167.109 41.1875C167.188 39.5859 167.344 35.4258 167.578 28.707C167.812 21.9492 168.086 17.0078 168.398 13.8828ZM169.219 3.39453C170.273 3.39453 171.152 3.86328 171.855 4.80078C172.559 5.69922 172.91 6.73438 172.91 7.90625C172.91 8.76562 172.695 9.46875 172.266 10.0156C171.875 10.5234 171.328 10.7773 170.625 10.7773C169.531 10.7773 168.672 10.3281 168.047 9.42969C167.422 8.53125 167.109 7.47656 167.109 6.26562C167.109 5.40625 167.285 4.72266 167.637 4.21484C168.027 3.66797 168.555 3.39453 169.219 3.39453ZM181.699 20.5625L181.934 43.7656C181.348 44.0781 180.645 44.2344 179.824 44.2344C179.199 44.2344 178.496 44.1367 177.715 43.9414C177.832 41.4805 177.91 36.6367 177.949 29.4102C177.988 22.1836 178.145 16.832 178.418 13.3555L181.055 13.9414L181.23 17.2227C183.301 15.0352 185.684 13.9414 188.379 13.9414C189.746 13.9414 190.84 14.0391 191.66 14.2344C192.48 14.4297 193.262 14.918 194.004 15.6992C194.785 16.4414 195.371 17.4375 195.762 18.6875C196.152 19.9375 196.504 21.7344 196.816 24.0781C197.129 26.3828 197.344 29.0977 197.461 32.2227C197.617 35.3086 197.715 39.2148 197.754 43.9414C197.52 44.0195 197.07 44.0586 196.406 44.0586C195 44.0586 193.906 43.8828 193.125 43.5312C192.969 42.9062 192.891 41.8711 192.891 40.4258C192.891 39.6836 192.91 38.2969 192.949 36.2656C193.027 34.1953 193.066 32.5938 193.066 31.4609C193.066 29.5859 192.988 27.9453 192.832 26.5391C192.715 25.1328 192.461 23.7461 192.07 22.3789C191.719 21.0117 191.152 19.957 190.371 19.2148C189.629 18.4727 188.691 18.1016 187.559 18.1016C186.27 18.1016 185.254 18.1992 184.512 18.3945C183.809 18.5898 183.301 18.8242 182.988 19.0977C182.715 19.3711 182.285 19.8594 181.699 20.5625Z" fill="#1876FB"/>
</svg>
